<?xml version="1.0" encoding="iso-8859-1"?>
<!-- Generator: Adobe Illustrator 19.0.0, SVG Export Plug-In . SVG Version: 6.00 Build 0)  -->
<svg version="1.1" id="Layer_1" xmlns="http://www.w3.org/2000/svg" xmlns:xlink="http://www.w3.org/1999/xlink" x="0px" y="0px"
	 viewBox="0 0 511.999 511.999" style="enable-background:new 0 0 511.999 511.999;" xml:space="preserve">
<g>
	<g>
		<path d="M354.763,86.423l-97.01-21.558c-2.393-0.532-4.899,0.051-6.812,1.586c-1.912,1.534-3.026,3.853-3.026,6.306v46.349
			c0,4.466,3.62,8.085,8.084,8.085s8.084-3.62,8.084-8.084V82.836l51.66,11.479l-39.94,8.875c-4.358,0.968-7.106,5.287-6.137,9.645
			c0.968,4.358,5.286,7.109,9.645,6.138l75.452-16.768c3.699-0.822,6.33-4.102,6.33-7.891S358.462,87.244,354.763,86.423z"/>
	</g>
</g>
<g>
	<g>
		<path d="M32.647,377.839c-4.147-1.66-8.851,0.358-10.508,4.503L0.581,436.237c-1.659,4.146,0.358,8.851,4.503,10.508
			c0.985,0.395,2.001,0.581,3,0.581c3.209,0,6.244-1.923,7.509-5.083l21.558-53.894C38.808,384.202,36.791,379.497,32.647,377.839z"
			/>
	</g>
</g>
<g>
	<g>
		<path d="M511.419,436.236l-21.558-53.894c-1.658-4.144-6.362-6.164-10.508-4.503c-4.146,1.658-6.161,6.363-4.503,10.508
			l21.558,53.894c1.264,3.16,4.3,5.083,7.509,5.083c0.999,0,2.016-0.187,3-0.581C511.061,445.086,513.078,440.382,511.419,436.236z"
			/>
	</g>
</g>
<g>
	<g>
		<path d="M482.356,431.154h-22.784c1.004-1.97,1.817-4.065,2.372-6.285l17.476-69.902c0.001-0.006,0.002-0.013,0.003-0.019
			c0.069-0.281,0.123-0.565,0.162-0.852c0.01-0.075,0.013-0.15,0.022-0.225c0.023-0.21,0.04-0.419,0.046-0.631
			c0.003-0.099,0-0.197,0-0.295c-0.001-0.191-0.008-0.383-0.023-0.573c-0.008-0.098-0.017-0.194-0.028-0.292
			c-0.023-0.196-0.053-0.392-0.091-0.587c-0.016-0.086-0.031-0.174-0.051-0.259c-0.047-0.211-0.106-0.421-0.171-0.63
			c-0.02-0.067-0.038-0.134-0.06-0.2c-0.085-0.249-0.182-0.495-0.293-0.737c-0.011-0.024-0.018-0.049-0.029-0.071
			c-0.124-0.265-0.263-0.526-0.418-0.78c-0.037-0.06-0.08-0.116-0.119-0.176c-0.104-0.163-0.208-0.326-0.326-0.483
			c-0.017-0.023-0.036-0.042-0.053-0.064c-0.015-0.019-0.027-0.041-0.042-0.061c-0.052-0.066-0.111-0.123-0.165-0.188
			c-0.122-0.147-0.246-0.292-0.376-0.428c-0.072-0.076-0.148-0.147-0.223-0.219c-0.139-0.135-0.281-0.265-0.429-0.388
			c-0.074-0.063-0.15-0.122-0.226-0.181c-0.158-0.124-0.321-0.24-0.487-0.35c-0.074-0.05-0.148-0.098-0.223-0.146
			c-0.18-0.111-0.363-0.212-0.551-0.308c-0.07-0.036-0.138-0.074-0.209-0.108c-0.22-0.104-0.444-0.198-0.672-0.282
			c-0.042-0.015-0.082-0.035-0.124-0.05c-0.271-0.095-0.545-0.176-0.823-0.241c-0.071-0.017-0.143-0.026-0.216-0.041
			c-0.207-0.043-0.414-0.081-0.624-0.108c-0.102-0.013-0.206-0.02-0.309-0.029c-0.186-0.016-0.373-0.028-0.56-0.032
			c-0.052-0.001-0.102-0.009-0.154-0.009c-111.094,0-202.068-87.763-207.252-197.597c-0.02-3.415-0.098-6.833-0.249-10.252
			c-0.003-0.077-0.016-0.15-0.022-0.225c-0.011-0.147-0.024-0.291-0.041-0.435c-0.015-0.123-0.034-0.245-0.056-0.366
			c-0.026-0.149-0.054-0.298-0.088-0.443c-0.026-0.111-0.054-0.22-0.084-0.329c-0.042-0.153-0.088-0.305-0.139-0.455
			c-0.032-0.095-0.068-0.19-0.103-0.282c-0.061-0.158-0.126-0.315-0.196-0.469c-0.037-0.079-0.073-0.155-0.112-0.233
			c-0.082-0.164-0.167-0.324-0.26-0.481c-0.037-0.061-0.073-0.122-0.111-0.183c-0.103-0.166-0.211-0.328-0.327-0.486
			c-0.034-0.047-0.069-0.093-0.105-0.139c-0.125-0.164-0.255-0.323-0.392-0.477c-0.032-0.037-0.065-0.072-0.098-0.108
			c-0.144-0.156-0.293-0.307-0.45-0.452c-0.033-0.031-0.067-0.06-0.1-0.091c-0.158-0.142-0.321-0.277-0.49-0.406
			c-0.039-0.03-0.078-0.058-0.117-0.087c-0.166-0.122-0.335-0.238-0.51-0.347c-0.051-0.031-0.101-0.063-0.153-0.093
			c-0.165-0.098-0.333-0.191-0.506-0.277c-0.07-0.036-0.141-0.069-0.212-0.102c-0.156-0.073-0.315-0.141-0.475-0.204
			c-0.095-0.038-0.191-0.071-0.288-0.106c-0.142-0.05-0.286-0.095-0.431-0.137c-0.121-0.034-0.244-0.066-0.366-0.095
			c-0.128-0.03-0.255-0.057-0.386-0.081c-0.141-0.026-0.283-0.046-0.427-0.066c-0.122-0.015-0.244-0.029-0.366-0.039
			c-0.148-0.012-0.298-0.018-0.447-0.023c-0.073-0.002-0.144-0.011-0.218-0.011c-0.059,0-0.116,0.008-0.176,0.009
			c-0.06,0.001-0.12-0.003-0.18-0.001c-0.077,0.003-0.151,0.016-0.227,0.022c-0.144,0.011-0.287,0.023-0.429,0.041
			c-0.128,0.016-0.255,0.037-0.383,0.058c-0.139,0.025-0.278,0.051-0.415,0.082c-0.126,0.029-0.251,0.061-0.375,0.097
			c-0.132,0.037-0.261,0.075-0.389,0.119c-0.125,0.042-0.248,0.087-0.371,0.136c-0.122,0.047-0.243,0.097-0.361,0.151
			c-0.122,0.055-0.241,0.113-0.36,0.174c-0.113,0.058-0.225,0.117-0.335,0.18c-0.116,0.067-0.231,0.137-0.344,0.209
			c-0.106,0.068-0.21,0.137-0.313,0.209c-0.109,0.078-0.216,0.157-0.321,0.24c-0.099,0.078-0.197,0.157-0.292,0.239
			c-0.1,0.086-0.196,0.175-0.292,0.265c-0.093,0.088-0.184,0.178-0.273,0.271c-0.089,0.093-0.175,0.189-0.26,0.286
			c-0.086,0.099-0.17,0.199-0.252,0.303c-0.078,0.099-0.153,0.199-0.226,0.303c-0.078,0.109-0.154,0.219-0.226,0.332
			c-0.068,0.105-0.131,0.211-0.194,0.319c-0.068,0.116-0.133,0.235-0.195,0.356c-0.058,0.112-0.112,0.226-0.165,0.342
			c-0.055,0.122-0.109,0.244-0.158,0.369c-0.049,0.121-0.093,0.244-0.135,0.368c-0.042,0.124-0.083,0.249-0.12,0.376
			c-0.038,0.129-0.07,0.261-0.101,0.393c-0.029,0.126-0.057,0.252-0.08,0.38c-0.025,0.137-0.045,0.276-0.064,0.415
			c-0.016,0.129-0.031,0.258-0.042,0.389c-0.011,0.14-0.017,0.282-0.022,0.425c-0.002,0.078-0.012,0.153-0.012,0.232
			c0,114.412-93.081,207.493-207.493,207.493c-0.054,0-0.107,0.009-0.16,0.009c-0.182,0.003-0.362,0.015-0.543,0.031
			c-0.11,0.01-0.219,0.017-0.328,0.031c-0.196,0.025-0.39,0.061-0.584,0.101c-0.085,0.017-0.171,0.029-0.254,0.049
			c-0.274,0.065-0.544,0.144-0.811,0.237c-0.058,0.02-0.114,0.047-0.171,0.069c-0.211,0.08-0.419,0.165-0.624,0.262
			c-0.08,0.038-0.157,0.082-0.236,0.122c-0.178,0.092-0.352,0.188-0.524,0.293c-0.082,0.051-0.162,0.103-0.243,0.157
			c-0.159,0.107-0.317,0.219-0.47,0.337c-0.081,0.063-0.161,0.126-0.239,0.192c-0.143,0.121-0.281,0.248-0.418,0.378
			c-0.078,0.074-0.156,0.148-0.231,0.226c-0.129,0.135-0.251,0.278-0.372,0.424c-0.054,0.065-0.114,0.123-0.167,0.19
			c-0.015,0.019-0.027,0.041-0.042,0.061c-0.017,0.022-0.037,0.041-0.053,0.064c-0.117,0.157-0.221,0.32-0.326,0.483
			c-0.038,0.059-0.082,0.115-0.119,0.176c-0.155,0.254-0.294,0.515-0.418,0.78c-0.011,0.024-0.018,0.047-0.029,0.071
			c-0.11,0.243-0.208,0.488-0.293,0.737c-0.023,0.066-0.04,0.134-0.06,0.201c-0.065,0.209-0.124,0.418-0.171,0.629
			c-0.019,0.086-0.034,0.172-0.051,0.259c-0.037,0.195-0.068,0.39-0.091,0.587c-0.011,0.097-0.021,0.194-0.028,0.292
			c-0.015,0.191-0.022,0.382-0.023,0.573c-0.001,0.098-0.003,0.196,0,0.295c0.006,0.211,0.024,0.421,0.046,0.631
			c0.009,0.076,0.011,0.15,0.022,0.225c0.039,0.287,0.093,0.571,0.162,0.852c0.001,0.006,0.002,0.013,0.003,0.019l17.476,69.902
			c0.555,2.219,1.369,4.315,2.372,6.285H29.644c-4.465,0-8.084,3.62-8.084,8.084s3.62,8.084,8.084,8.084h49.169h4.725h140.125
			c4.465,0,8.084-3.62,8.084-8.084c0-13.373,10.879-24.252,24.252-24.252c10.54,0,19.525,6.759,22.862,16.168H256
			c-4.465,0-8.084,3.62-8.084,8.084s3.62,8.084,8.084,8.084h32.337h140.125h4.725h49.169c4.465,0,8.084-3.62,8.084-8.084
			S486.82,431.154,482.356,431.154z M118.569,431.156H83.538h-4.725v-0.001c-6.195,0-11.569-4.197-13.072-10.205l-12.633-50.532
			c20.097,10.281,42.875,14.921,65.461,13.207V431.156z M67.78,359.42c56.252-6.89,106.111-34.745,141.506-75.491
			c-21.052,33.389-50.027,61.955-85.374,82.86C104.854,369.454,85.374,366.808,67.78,359.42z M134.738,431.154v-43.288
			c18.347,7.229,39.087,5.953,56.589-3.832c3.814,2.132,7.781,3.859,11.845,5.184c-10.874,11.423-17.729,26.065-19.477,41.936
			H134.738z M295.608,431.152c-0.002-0.01-0.004-0.018-0.007-0.027c-0.019-0.094-0.043-0.185-0.064-0.279
			c-0.111-0.524-0.23-1.046-0.361-1.562c-0.056-0.219-0.119-0.433-0.178-0.651c-0.106-0.388-0.212-0.775-0.33-1.159
			c-0.074-0.244-0.154-0.485-0.233-0.727c-0.115-0.354-0.233-0.705-0.357-1.054c-0.088-0.248-0.18-0.495-0.273-0.74
			c-0.128-0.339-0.261-0.675-0.399-1.009c-0.1-0.244-0.201-0.487-0.305-0.729c-0.146-0.337-0.299-0.67-0.454-1.002
			c-0.107-0.229-0.211-0.458-0.322-0.685c-0.175-0.357-0.358-0.707-0.542-1.057c-0.102-0.194-0.201-0.391-0.306-0.584
			c-0.29-0.529-0.59-1.052-0.902-1.567c-0.073-0.122-0.153-0.238-0.229-0.359c-0.248-0.399-0.499-0.796-0.761-1.186
			c-0.135-0.2-0.277-0.397-0.415-0.595c-0.211-0.303-0.424-0.606-0.643-0.903c-0.156-0.211-0.318-0.419-0.477-0.628
			c-0.212-0.277-0.427-0.552-0.647-0.822c-0.17-0.21-0.343-0.417-0.516-0.623c-0.222-0.264-0.448-0.524-0.677-0.781
			c-0.178-0.201-0.357-0.4-0.539-0.597c-0.239-0.259-0.483-0.512-0.729-0.764c-0.18-0.185-0.359-0.372-0.543-0.554
			c-0.272-0.268-0.551-0.53-0.83-0.791c-0.166-0.155-0.329-0.314-0.497-0.466c-0.43-0.389-0.869-0.77-1.316-1.14
			c-0.11-0.092-0.223-0.178-0.334-0.268c-0.377-0.306-0.757-0.608-1.145-0.9c-0.188-0.141-0.379-0.275-0.569-0.413
			c-0.305-0.222-0.611-0.443-0.923-0.656c-0.212-0.146-0.429-0.287-0.645-0.428c-0.298-0.195-0.596-0.389-0.899-0.577
			c-0.225-0.14-0.453-0.276-0.681-0.412c-0.304-0.18-0.61-0.357-0.919-0.529c-0.23-0.128-0.46-0.257-0.693-0.38
			c-0.321-0.171-0.647-0.336-0.973-0.499c-0.225-0.112-0.449-0.226-0.677-0.334c-0.361-0.171-0.728-0.334-1.094-0.496
			c-0.199-0.087-0.396-0.179-0.596-0.264c-0.564-0.237-1.133-0.463-1.708-0.675c-0.06-0.023-0.123-0.041-0.184-0.064
			c-0.525-0.19-1.055-0.371-1.591-0.539c-0.207-0.066-0.417-0.123-0.626-0.184c-0.392-0.116-0.786-0.232-1.184-0.336
			c-0.239-0.064-0.481-0.121-0.722-0.179c-0.373-0.092-0.748-0.18-1.125-0.26c-0.252-0.054-0.505-0.105-0.76-0.154
			c-0.374-0.072-0.75-0.14-1.129-0.203c-0.255-0.042-0.512-0.083-0.77-0.121c-0.389-0.056-0.78-0.105-1.173-0.15
			c-0.248-0.028-0.495-0.059-0.744-0.083c-0.431-0.041-0.866-0.071-1.301-0.099c-0.212-0.014-0.424-0.032-0.636-0.042
			c-0.649-0.031-1.302-0.05-1.958-0.05c-0.656,0-1.307,0.022-1.956,0.053c-0.213,0.011-0.424,0.029-0.636,0.042
			c-0.435,0.028-0.87,0.058-1.301,0.099c-0.249,0.024-0.496,0.054-0.744,0.083c-0.392,0.045-0.784,0.093-1.173,0.15
			c-0.258,0.038-0.513,0.079-0.77,0.121c-0.378,0.063-0.755,0.129-1.129,0.203c-0.254,0.05-0.508,0.099-0.76,0.154
			c-0.377,0.081-0.752,0.169-1.125,0.26c-0.241,0.059-0.483,0.116-0.722,0.179c-0.398,0.105-0.79,0.22-1.184,0.336
			c-0.209,0.061-0.419,0.12-0.626,0.184c-0.536,0.168-1.065,0.349-1.591,0.539c-0.061,0.023-0.123,0.041-0.184,0.064
			c-0.577,0.211-1.146,0.439-1.71,0.675c-0.199,0.084-0.396,0.176-0.593,0.262c-0.368,0.162-0.734,0.324-1.096,0.497
			c-0.227,0.108-0.452,0.222-0.677,0.334c-0.327,0.163-0.652,0.328-0.973,0.499c-0.233,0.124-0.463,0.252-0.693,0.38
			c-0.309,0.172-0.615,0.349-0.919,0.529c-0.229,0.136-0.456,0.272-0.681,0.412c-0.303,0.188-0.602,0.382-0.899,0.577
			c-0.216,0.142-0.432,0.282-0.645,0.428c-0.312,0.213-0.618,0.434-0.923,0.656c-0.19,0.138-0.382,0.272-0.569,0.413
			c-0.388,0.292-0.769,0.594-1.145,0.9c-0.111,0.089-0.224,0.177-0.334,0.268c-0.447,0.371-0.885,0.751-1.316,1.14
			c-0.168,0.152-0.331,0.312-0.497,0.466c-0.279,0.261-0.558,0.523-0.83,0.791c-0.184,0.182-0.363,0.369-0.543,0.554
			c-0.246,0.252-0.489,0.505-0.729,0.764c-0.182,0.197-0.361,0.397-0.539,0.597c-0.229,0.258-0.455,0.518-0.677,0.781
			c-0.174,0.206-0.347,0.413-0.516,0.623c-0.22,0.271-0.434,0.545-0.647,0.822c-0.161,0.208-0.321,0.416-0.477,0.628
			c-0.22,0.297-0.431,0.6-0.644,0.903c-0.138,0.198-0.28,0.394-0.415,0.595c-0.261,0.389-0.513,0.786-0.761,1.186
			c-0.076,0.121-0.155,0.238-0.229,0.359c-0.313,0.514-0.612,1.038-0.902,1.567c-0.106,0.193-0.204,0.39-0.306,0.584
			c-0.184,0.35-0.368,0.702-0.542,1.057c-0.111,0.226-0.214,0.456-0.321,0.683c-0.155,0.333-0.308,0.667-0.455,1.005
			c-0.105,0.24-0.204,0.482-0.304,0.724c-0.138,0.335-0.271,0.672-0.4,1.011c-0.093,0.246-0.184,0.492-0.273,0.739
			c-0.124,0.349-0.243,0.701-0.357,1.054c-0.079,0.241-0.158,0.483-0.233,0.727c-0.116,0.384-0.224,0.771-0.33,1.159
			c-0.059,0.217-0.122,0.432-0.178,0.651c-0.131,0.516-0.25,1.038-0.361,1.562c-0.019,0.094-0.044,0.185-0.064,0.279
			c-0.002,0.01-0.004,0.018-0.006,0.027h-16.388c2.237-15.664,10.92-29.629,24.248-38.687c10.94-0.097,21.862-2.904,31.749-8.431
			c9.887,5.528,20.809,8.334,31.749,8.431c13.328,9.059,22.012,23.024,24.248,38.687H295.608z M377.262,431.154h-48.956
			c-1.748-15.871-8.604-30.514-19.477-41.936c4.064-1.325,8.031-3.05,11.845-5.184c10.064,5.628,21.2,8.441,32.337,8.441
			c8.229,0,16.456-1.541,24.252-4.613V431.154z M317.846,304.908c-2.75-3.516-7.831-4.139-11.348-1.387
			c-3.517,2.751-4.138,7.832-1.387,11.348c18.037,23.062,39.458,42.794,63.797,58.831c-14.238,4.772-30.07,2.957-43.094-5.44
			c-20.629-20.781-36.694-45.062-47.742-72.195c-1.684-4.135-6.402-6.121-10.536-4.439c-4.135,1.684-6.122,6.4-4.439,10.536
			c10.609,26.052,25.53,49.654,44.408,70.31c-5.491,2.276-11.279,3.538-17.102,3.779c-0.33-0.012-0.657-0.001-0.984,0.027
			c-8.707,0.189-17.45-1.895-25.336-6.256v-38.572c0-4.465-3.62-8.084-8.084-8.084s-8.084,3.62-8.084,8.084v38.572
			c-7.883,4.359-16.62,6.443-25.324,6.256c-0.334-0.029-0.67-0.041-1.007-0.028c-5.822-0.243-11.609-1.504-17.099-3.781
			c31.814-34.919,52.828-79.294,59.517-126.107c0.631-4.42-2.44-8.514-6.86-9.146c-4.419-0.63-8.514,2.44-9.146,6.86
			c-6.666,46.662-28.607,90.725-61.805,124.18c-12.971,8.365-28.729,10.2-42.924,5.5c36.733-24.22,67.044-57.113,88.185-95.871
			c12.501-22.92,21.545-47.426,26.946-72.725c26.092,81.934,98.204,143.528,185.82,154.259
			c-17.487,7.344-36.838,10.005-55.787,7.419C361.125,350.703,337.377,329.881,317.846,304.908z M446.258,420.948
			c-1.503,6.009-6.877,10.205-13.072,10.205h-4.725v0.001H393.43v-47.531c22.586,1.714,45.364-2.926,65.461-13.207L446.258,420.948z
			"/>
	</g>
</g>
<g>
</g>
<g>
</g>
<g>
</g>
<g>
</g>
<g>
</g>
<g>
</g>
<g>
</g>
<g>
</g>
<g>
</g>
<g>
</g>
<g>
</g>
<g>
</g>
<g>
</g>
<g>
</g>
<g>
</g>
</svg>
