<?xml version="1.0" encoding="iso-8859-1"?>
<!-- Generator: Adobe Illustrator 19.0.0, SVG Export Plug-In . SVG Version: 6.00 Build 0)  -->
<svg version="1.1" id="Layer_1" xmlns="http://www.w3.org/2000/svg" xmlns:xlink="http://www.w3.org/1999/xlink" x="0px" y="0px"
	 viewBox="0 0 422.452 422.452" style="enable-background:new 0 0 422.452 422.452;" xml:space="preserve">
<g>
	<g>
		<g>
			<path d="M330.822,374.751l-13.468-137.657c-2.363-24.155-22.448-42.371-46.719-42.371h-27.682
				c32.333-12.706,55.282-44.233,55.282-81.021c0-0.283-0.017-0.561-0.042-0.837h7.899c4.971,0,9-4.029,9-9
				C315.092,46.594,268.498,0,211.226,0S107.36,46.594,107.36,103.866c0,4.971,4.029,9,9,9h7.899
				c-0.025,0.276-0.042,0.554-0.042,0.837c0,36.788,22.949,68.315,55.282,81.021h-27.682c-24.271,0-44.355,18.215-46.719,42.371
				L91.63,374.751c-1.192,12.181,2.84,24.367,11.063,33.434c8.223,9.066,19.958,14.267,32.198,14.267h152.67
				c12.24,0,23.976-5.2,32.198-14.267C327.982,399.118,332.014,386.932,330.822,374.751z M116.026,396.093
				c-4.889-5.39-7.191-12.347-6.482-19.589l11.665-119.23c3.781,40.04,9.162,104.051,9.458,146.832
				C125.045,403.184,119.951,400.421,116.026,396.093z M211.226,18c34.131,0,63.657,20.029,77.491,48.94H133.735
				C147.569,38.029,177.095,18,211.226,18z M127.485,84.94h167.481c0.734,3.246,1.305,6.553,1.658,9.926H125.827
				C126.18,91.493,126.751,88.186,127.485,84.94z M142.216,113.703c0-0.283-0.017-0.561-0.042-0.837h28.792v0.837v9.437
				c0,4.971,4.029,9,9,9s9-4.029,9-9v-9.437v-0.837h44.52v0.837v9.437c0,4.971,4.029,9,9,9s9-4.029,9-9v-9.437v-0.837h28.792
				c-0.025,0.276-0.042,0.554-0.042,0.837c0,38.052-30.958,69.01-69.01,69.01S142.216,151.755,142.216,113.703z M224.263,212.724
				l-13.037,33.439l-13.037-33.439H224.263z M273.782,404.452H148.67c-0.083-13.541-0.672-29.177-1.557-45.512h128.226
				C274.454,375.275,273.865,390.91,273.782,404.452z M276.411,340.94h-130.37c-0.394-6.102-0.816-12.23-1.259-18.315H277.67
				C277.227,328.71,276.804,334.837,276.411,340.94z M287.022,218.559c-0.075,0.692-4.315,40.044-7.978,86.065H143.408
				c-3.663-46.021-7.903-85.373-7.978-86.065c-0.026-0.241-0.069-0.476-0.113-0.711c4.687-3.242,10.377-5.125,16.5-5.125h27.052
				v0.001l23.972,61.485c1.347,3.456,4.676,5.731,8.385,5.731s7.038-2.275,8.385-5.731l23.972-61.485h27.053
				c6.123,0,11.813,1.883,16.5,5.125C287.092,218.083,287.048,218.318,287.022,218.559z M306.427,396.094
				c-3.926,4.327-9.021,7.089-14.642,8.012c0.296-42.774,5.677-106.788,9.458-146.83l11.665,119.229
				C313.617,383.747,311.315,390.704,306.427,396.094z"/>
			<path d="M232.617,154.633c0-4.971-4.029-9-9-9h-24.783c-4.971,0-9,4.029-9,9s4.03,9,9,9h24.783
				C228.588,163.633,232.617,159.604,232.617,154.633z"/>
		</g>
	</g>
</g>
<g>
</g>
<g>
</g>
<g>
</g>
<g>
</g>
<g>
</g>
<g>
</g>
<g>
</g>
<g>
</g>
<g>
</g>
<g>
</g>
<g>
</g>
<g>
</g>
<g>
</g>
<g>
</g>
<g>
</g>
</svg>
